<svg width="132" height="38" viewBox="0 0 132 38" fill="none" xmlns="http://www.w3.org/2000/svg">
<path fill-rule="evenodd" clip-rule="evenodd" d="M83.1041 11.227L80.9252 7.57298L77.0578 9.40001L74.8789 5.73514L71.0114 7.57298L68.8435 3.89731L64.976 5.73514L62.7971 2.07028L58.9296 3.90812L56.7617 0.232441L52.8833 2.07028L44.6799 28.5784L54.6482 31.6054C55.0237 30.4106 55.8174 29.3885 56.8861 28.7238C57.9547 28.0591 59.2277 27.7957 60.475 27.9811C61.7223 28.1665 62.8616 28.7885 63.6871 29.7347C64.5126 30.681 64.9697 31.889 64.976 33.1405V33.2487C64.9978 33.7243 64.9433 34.2 64.8017 34.6757L74.9334 37.7568L83.1041 11.227Z" fill="#D61920"/>
<path fill-rule="evenodd" clip-rule="evenodd" d="M53.2319 26.3946C52.9799 26.3532 52.7512 26.2236 52.5873 26.0292C52.4234 25.8348 52.3352 25.5886 52.3386 25.3351V12.3622C52.3371 12.2198 52.3643 12.0786 52.4186 11.9468C52.4728 11.8149 52.553 11.6952 52.6544 11.5945C52.7559 11.4938 52.8766 11.4143 53.0094 11.3604C53.1422 11.3066 53.2846 11.2796 53.428 11.2811H62.8734C63.4299 11.2797 63.9813 11.387 64.496 11.5971C65.0107 11.8071 65.4787 12.1157 65.8732 12.5052C66.2678 12.8947 66.5811 13.3575 66.7954 13.8672C67.0097 14.3768 67.1207 14.9234 67.1222 15.4757V25.3351C67.1219 25.4944 67.0862 25.6515 67.0176 25.7955C66.949 25.9394 66.8492 26.0665 66.7253 26.1677C66.6015 26.2689 66.4566 26.3418 66.3011 26.381C66.1456 26.4202 65.9833 26.4248 65.8258 26.3946C65.5758 26.3509 65.3496 26.2203 65.1879 26.0261C65.0262 25.832 64.9395 25.587 64.9433 25.3351V15.4865C64.9433 14.9417 64.7252 14.4193 64.337 14.0341C63.9489 13.6488 63.4224 13.4324 62.8734 13.4324H60.8144V25.3243C60.8152 25.4692 60.7867 25.6127 60.7306 25.7464C60.6744 25.8802 60.5918 26.0013 60.4875 26.1027C60.3635 26.2248 60.2115 26.3151 60.0445 26.3659C59.8775 26.4168 59.7005 26.4266 59.5288 26.3946C59.2769 26.3532 59.0481 26.2236 58.8842 26.0292C58.7203 25.8348 58.6321 25.5886 58.6355 25.3351V13.4324H54.5175V25.3243C54.5185 25.4834 54.4841 25.6406 54.4169 25.785C54.3496 25.9293 54.251 26.0572 54.1283 26.1594C54.0055 26.2616 53.8615 26.3357 53.7066 26.3763C53.5516 26.417 53.3896 26.4232 53.2319 26.3946ZM68.9415 32.0487C68.6876 32.007 68.4575 31.8758 68.2933 31.6792C68.1292 31.4825 68.0421 31.2337 68.0482 30.9784C68.0494 30.6948 68.1629 30.423 68.3641 30.2216C68.5653 30.0179 68.8394 29.9014 69.1267 29.8973C70.0527 29.8973 70.848 29.3135 71.1095 28.4378L72.2316 24.7297L68.5602 12.5459C68.5164 12.4097 68.5003 12.2662 68.5128 12.1237C68.5254 11.9812 68.5662 11.8426 68.6331 11.7159C68.7 11.5892 68.7915 11.4769 68.9024 11.3856C69.0134 11.2942 69.1414 11.2257 69.2792 11.1838C69.5537 11.1083 69.8468 11.1402 70.0982 11.273C70.3496 11.4058 70.54 11.6293 70.6301 11.8973L73.3537 20.9784L76.1209 11.8973C76.2516 11.4 76.8072 11.0649 77.3737 11.173L77.45 11.1838C78.0383 11.3676 78.3651 11.9838 78.1908 12.5568L74.4105 25.0541L73.2121 29.0541C72.9432 29.9149 72.4099 30.6708 71.6869 31.2162C70.9514 31.7636 70.0569 32.0595 69.1376 32.0595C69.0721 32.062 69.0064 32.0583 68.9415 32.0487Z" fill="#FEFEFE"/>
<path fill-rule="evenodd" clip-rule="evenodd" d="M2.35548 24.0271H4.49077C5.05997 24.0271 5.60586 23.8027 6.00834 23.4033C6.41083 23.0039 6.63694 22.4622 6.63694 21.8973V15.6595C6.63838 15.3798 6.58429 15.1026 6.47775 14.8436C6.37122 14.5847 6.21433 14.3491 6.01605 14.1504C5.81777 13.9516 5.58198 13.7935 5.32214 13.6852C5.0623 13.5768 4.7835 13.5204 4.50166 13.5189H2.35548V24.0054V24.0271ZM1.01548 26.2541C0.753894 26.2102 0.516749 26.075 0.346913 25.8727C0.177077 25.6705 0.0857578 25.4146 0.089464 25.1514V5.7784C0.0875383 5.63018 0.115455 5.48307 0.171578 5.3457C0.2277 5.20832 0.310898 5.08345 0.416293 4.9784C0.543806 4.84701 0.701895 4.74872 0.876661 4.69217C1.05143 4.63562 1.23752 4.62254 1.41857 4.65408C1.96329 4.76219 2.35548 5.21624 2.35548 5.76759V11.2811H4.49077C5.06967 11.2797 5.64317 11.3916 6.17842 11.6105C6.71367 11.8293 7.20015 12.1508 7.61 12.5565C8.01985 12.9622 8.34503 13.4442 8.56689 13.9748C8.78876 14.5054 8.90296 15.0742 8.90296 15.6487V21.8865C8.90008 23.044 8.43545 24.1532 7.61067 24.9717C6.78589 25.7902 5.66807 26.2512 4.50166 26.2541H1.22247C1.14966 26.2584 1.0766 26.2547 1.00459 26.2433L1.01548 26.2541Z" fill="#333545"/>
<path fill-rule="evenodd" clip-rule="evenodd" d="M16.5835 13.4324C16.4611 13.4112 16.3372 13.4004 16.2131 13.4C15.9304 13.3971 15.65 13.4502 15.3883 13.5562C15.1266 13.6622 14.8889 13.819 14.689 14.0173C14.4891 14.2157 14.3311 14.4516 14.2243 14.7113C14.1175 14.971 14.064 15.2492 14.0669 15.5297V22.027C14.0654 22.3071 14.12 22.5847 14.2273 22.8437C14.3347 23.1028 14.4927 23.3381 14.6923 23.5362C14.8918 23.7342 15.129 23.891 15.39 23.9976C15.6511 24.1041 15.9308 24.1582 16.2131 24.1568C16.7823 24.1568 17.3282 23.9324 17.7306 23.533C18.1331 23.1336 18.3592 22.5919 18.3592 22.027V15.5405C18.3592 14.4919 17.6075 13.6162 16.5835 13.4324ZM15.4396 26.3513C14.4181 26.173 13.4929 25.6425 12.8272 24.8533C12.1615 24.0641 11.798 23.067 11.8009 22.0378V15.5405C11.7989 14.9655 11.9126 14.3959 12.1352 13.865C12.3578 13.3341 12.6849 12.8526 13.0973 12.4486C13.5063 12.0428 13.9922 11.7212 14.5269 11.5023C15.0616 11.2834 15.6346 11.1715 16.2131 11.173C17.3804 11.173 18.4998 11.6331 19.3253 12.4522C20.1507 13.2713 20.6144 14.3822 20.6144 15.5405V22.0378C20.6144 23.2054 20.1568 24.3081 19.3179 25.1405C18.9105 25.5456 18.4265 25.8667 17.8937 26.0857C17.3609 26.3046 16.7897 26.4169 16.2131 26.4162C15.9538 26.4173 15.695 26.3956 15.4396 26.3513ZM28.2948 13.4432C28.1725 13.422 28.0486 13.4111 27.9244 13.4108C27.6418 13.4079 27.3614 13.461 27.0997 13.567C26.838 13.673 26.6002 13.8298 26.4004 14.0282C26.2005 14.2265 26.0425 14.4624 25.9357 14.7221C25.8289 14.9818 25.7753 15.2601 25.7783 15.5405V22.0378C25.7768 22.3179 25.8313 22.5955 25.9387 22.8545C26.046 23.1136 26.2041 23.3489 26.4036 23.547C26.6032 23.745 26.8404 23.9018 27.1014 24.0084C27.3625 24.1149 27.6422 24.169 27.9244 24.1676C28.2067 24.169 28.4864 24.1149 28.7475 24.0084C29.0085 23.9018 29.2457 23.745 29.4452 23.547C29.6448 23.3489 29.8028 23.1136 29.9102 22.8545C30.0175 22.5955 30.0721 22.3179 30.0706 22.0378V15.5405C30.0706 14.5027 29.3189 13.627 28.2948 13.4432ZM27.1509 26.3513C26.1315 26.1708 25.2089 25.6392 24.5453 24.8503C23.8818 24.0613 23.5198 23.0655 23.5231 22.0378V15.5405C23.5249 14.9034 23.6667 14.2743 23.9387 13.6972C24.2107 13.1201 24.6064 12.6088 25.0981 12.1991C25.5898 11.7894 26.1657 11.4911 26.7856 11.3251C27.4055 11.1591 28.0544 11.1293 28.687 11.2378C29.7086 11.4136 30.6349 11.9415 31.3026 12.7287C31.9703 13.5159 32.3365 14.5117 32.3366 15.5405V22.0378C32.338 22.6153 32.223 23.1873 31.9985 23.7201C31.774 24.2529 31.4445 24.7359 31.0293 25.1405C30.6219 25.5456 30.1379 25.8667 29.6051 26.0857C29.0723 26.3046 28.5011 26.4169 27.9244 26.4162C27.663 26.4162 27.4015 26.3946 27.1509 26.3513ZM36.1605 26.3946C35.899 26.3507 35.6618 26.2155 35.492 26.0132C35.3221 25.811 35.2308 25.5551 35.2345 25.2919V5.77838C35.2345 5.47568 35.3435 5.18379 35.5614 4.97838C35.6899 4.85249 35.8471 4.75923 36.0197 4.70654C36.1923 4.65384 36.3751 4.64325 36.5527 4.67568C37.0975 4.76216 37.5005 5.22703 37.5005 5.77838V17.3243L42.708 11.5297C42.9695 11.2487 43.3617 11.1189 43.7539 11.1838C43.9516 11.2166 44.1369 11.3014 44.2904 11.4294C44.4439 11.5574 44.5601 11.7238 44.6268 11.9114C44.6936 12.099 44.7084 12.301 44.6698 12.4962C44.6313 12.6915 44.5407 12.8729 44.4075 13.0216L40.4747 17.3784L44.5383 24.7622C44.6114 24.8867 44.6588 25.0245 44.6775 25.1675C44.6962 25.3104 44.6859 25.4556 44.6472 25.5946C44.6051 25.7378 44.5341 25.871 44.4386 25.9863C44.3431 26.1015 44.2251 26.1962 44.0916 26.2649C43.8609 26.3965 43.5907 26.4424 43.329 26.3946C43.1662 26.3673 43.0115 26.3047 42.876 26.2113C42.7404 26.1178 42.6272 25.9959 42.5446 25.8541L38.8841 19.173L37.4896 20.6973V25.2919C37.4896 25.5901 37.3703 25.8761 37.1578 26.0869C36.9453 26.2978 36.6571 26.4162 36.3566 26.4162C36.2804 26.4162 36.215 26.4162 36.1388 26.3946H36.1605ZM86.0674 26.3838C85.4547 26.282 84.8727 26.0457 84.3638 25.6922C83.8549 25.3387 83.432 24.8769 83.1259 24.3405C82.9762 24.0777 82.9371 23.7669 83.017 23.4757C83.1041 23.1946 83.2893 22.9568 83.5399 22.8054C83.7725 22.6793 84.0421 22.6372 84.3025 22.6865C84.6293 22.7405 84.9235 22.9351 85.0869 23.227C85.381 23.7243 85.8495 24.0486 86.4269 24.1459C86.7246 24.1973 87.0301 24.1811 87.3206 24.0988C87.6112 24.0164 87.8792 23.8699 88.1046 23.6703C88.5404 23.2703 88.7583 22.6973 88.7038 22.1351C88.6917 21.847 88.6114 21.5657 88.4695 21.314C88.3275 21.0624 88.1279 20.8474 87.8867 20.6865L84.8363 18.5351C84.3393 18.1888 83.9254 17.738 83.6241 17.2148C83.3228 16.6916 83.1416 16.1088 83.0932 15.5081C83.0538 14.902 83.154 14.295 83.3862 13.7331C83.6183 13.1711 83.9764 12.669 84.4332 12.2649C84.8789 11.8537 85.4113 11.5463 85.9917 11.3649C86.5721 11.1835 87.186 11.1327 87.7887 11.2162C89.0742 11.4324 90.12 12.1676 90.7192 13.2054C90.8636 13.4648 90.9011 13.7695 90.824 14.0558C90.7468 14.342 90.5609 14.5874 90.3053 14.7405C90.0746 14.8721 89.8043 14.9181 89.5426 14.8703C89.3799 14.843 89.2252 14.7804 89.0896 14.6869C88.954 14.5935 88.8409 14.4715 88.7583 14.3297C88.6216 14.1004 88.4354 13.9039 88.2132 13.7543C87.9909 13.6048 87.738 13.5059 87.4727 13.4649C87.2013 13.4161 86.9221 13.4308 86.6574 13.5077C86.3926 13.5847 86.1496 13.7217 85.9475 13.9081C85.7502 14.0929 85.5963 14.3184 85.4965 14.5687C85.3967 14.819 85.3536 15.0881 85.3701 15.3568C85.3919 15.8865 85.697 16.4054 86.1545 16.7081L89.2049 18.8162C89.7227 19.176 90.1509 19.6484 90.4568 20.1973C90.7626 20.7463 90.9381 21.3573 90.9698 21.9838C91.0203 22.6073 90.9235 23.234 90.6871 23.8139C90.4507 24.3938 90.0812 24.911 89.608 25.3243C89.1478 25.7487 88.5981 26.0659 87.9988 26.2529C87.3995 26.4399 86.7657 26.492 86.1436 26.4054L86.0565 26.3838H86.0674ZM94.8155 26.4162C94.5538 26.3706 94.3166 26.2352 94.1454 26.0336C93.9741 25.832 93.8797 25.5772 93.8786 25.3135V5.8C93.8771 5.65195 93.9054 5.5051 93.9619 5.36804C94.0183 5.23098 94.1017 5.10646 94.2072 5.00177C94.3127 4.89707 94.4382 4.81431 94.5763 4.75832C94.7144 4.70233 94.8624 4.67423 95.0116 4.67568L95.2295 4.68649C95.7742 4.7946 96.1446 5.23784 96.1446 5.8V11.3135H98.2908C98.8692 11.3121 99.4421 11.4241 99.9768 11.6431C100.511 11.8621 100.997 12.1837 101.406 12.5896C101.815 12.9954 102.139 13.4775 102.36 14.008C102.581 14.5385 102.694 15.1071 102.692 15.6811V25.3027C102.693 25.4659 102.658 25.6274 102.589 25.7756C102.52 25.9238 102.419 26.0552 102.293 26.1604C102.167 26.2656 102.02 26.3421 101.861 26.3844C101.702 26.4268 101.536 26.4339 101.374 26.4054C100.829 26.3081 100.437 25.8432 100.437 25.2919V15.6703C100.437 15.3911 100.381 15.1147 100.273 14.8569C100.165 14.5991 100.007 14.365 99.8077 14.1681C99.6083 13.9712 99.3716 13.8154 99.1113 13.7095C98.8509 13.6037 98.5721 13.5499 98.2908 13.5514H96.1446V25.3027C96.1458 25.467 96.1104 25.6296 96.0408 25.7787C95.9713 25.9279 95.8693 26.0599 95.7423 26.1653C95.6152 26.2707 95.4662 26.3469 95.306 26.3884C95.1458 26.4299 94.9783 26.4357 94.8155 26.4054V26.4162ZM110.373 13.4541C110.064 13.3984 109.747 13.411 109.443 13.4909C109.14 13.5708 108.858 13.7161 108.618 13.9163C108.378 14.1165 108.185 14.3669 108.053 14.6495C107.921 14.9321 107.854 15.24 107.856 15.5514V22.0486C107.855 22.3278 107.909 22.6045 108.015 22.8628C108.122 23.1212 108.279 23.356 108.478 23.5539C108.676 23.7519 108.912 23.9089 109.172 24.0161C109.431 24.1232 109.71 24.1784 109.991 24.1784C110.558 24.1784 111.102 23.9622 111.506 23.5622C111.707 23.3645 111.867 23.1287 111.976 22.8688C112.084 22.6089 112.139 22.33 112.137 22.0486V15.5405C112.137 14.5027 111.397 13.6162 110.362 13.4432L110.373 13.4541ZM109.218 26.3405C108.199 26.1623 107.277 25.6329 106.613 24.8457C105.949 24.0586 105.587 23.0642 105.59 22.0378V15.5405C105.59 14.9025 105.731 14.2722 106.002 13.6937C106.273 13.1153 106.669 12.6027 107.161 12.1918C107.653 11.7809 108.229 11.4816 108.85 11.315C109.47 11.1483 110.12 11.1183 110.754 11.227C111.777 11.4031 112.705 11.9326 113.373 12.722C114.041 13.5114 114.406 14.5098 114.403 15.5405V22.0378C114.404 22.6136 114.289 23.1837 114.064 23.7146C113.84 24.2456 113.511 24.7267 113.096 25.1297C112.596 25.6277 111.983 25.9979 111.307 26.2088C110.632 26.4197 109.915 26.4649 109.218 26.3405Z" fill="#333545"/>
<path fill-rule="evenodd" clip-rule="evenodd" d="M131.802 12.5568C131.839 12.4194 131.848 12.2762 131.83 12.1352C131.811 11.9942 131.764 11.8583 131.693 11.7352C131.61 11.6039 131.502 11.4904 131.375 11.4013C131.248 11.3122 131.104 11.2492 130.952 11.2162C130.671 11.1635 130.38 11.2192 130.14 11.3719C129.899 11.5246 129.725 11.7628 129.655 12.0379C129.655 12.0919 128.435 16.9676 127.477 20.6757L127.455 20.7514L127.433 20.6757L125.254 12.0487C125.212 11.8381 125.106 11.6453 124.95 11.4965C124.794 11.3476 124.596 11.2498 124.383 11.2162C124.318 11.2036 124.252 11.1964 124.187 11.1946C123.685 11.1946 123.25 11.5406 123.108 12.0379C123.097 12.0919 121.877 16.9676 120.929 20.6757L120.907 20.7514L120.886 20.6757C119.96 16.9676 118.707 12.0919 118.707 12.0379C118.655 11.8309 118.545 11.6432 118.388 11.4974C118.231 11.3516 118.036 11.2539 117.824 11.2162C117.643 11.1844 117.456 11.1978 117.282 11.2553C117.107 11.3127 116.949 11.4124 116.823 11.5453C116.696 11.6783 116.605 11.8403 116.557 12.0169C116.51 12.1934 116.507 12.3789 116.55 12.5568L119.829 25.5622C119.891 25.8005 120.03 26.0121 120.225 26.1644C120.42 26.3167 120.659 26.4014 120.907 26.4054C121.441 26.4054 121.866 26.0595 121.975 25.5622L124.154 16.9243L124.187 16.8487L124.208 16.9243C125.167 20.6757 126.387 25.573 126.387 25.573C126.452 25.8067 126.591 26.0136 126.783 26.1634C126.975 26.3132 127.211 26.398 127.455 26.4054C127.706 26.4132 127.952 26.3329 128.149 26.1787C128.346 26.0244 128.482 25.8062 128.533 25.5622L131.802 12.5568Z" fill="#333545"/>
</svg>
