<svg width="143" height="120" viewBox="0 0 143 120" fill="none" xmlns="http://www.w3.org/2000/svg">
<g filter="url(#filter0_d_1_1939)">
<path fill-rule="evenodd" clip-rule="evenodd" d="M142.373 18.7419C121.049 29.1541 110.387 41.3882 110.387 55.4447C119.476 56.4859 126.992 60.1735 132.934 66.5076C138.877 72.8417 141.849 80.1735 141.849 88.5033C141.849 97.3536 138.965 104.816 133.197 110.889C127.428 116.963 120.175 120 111.435 120C101.647 120 93.1701 116.052 86.0037 108.156C78.8374 100.26 75.2542 90.6725 75.2542 79.3926C75.2542 45.553 94.306 19.089 132.41 0L142.373 18.7419ZM67.1186 18.7419C45.6196 29.1541 34.8702 41.3882 34.8702 55.4447C44.134 56.4859 51.7373 60.1735 57.6801 66.5076C63.6229 72.8417 66.5943 80.1735 66.5943 88.5033C66.5943 97.3536 63.6666 104.816 57.8112 110.889C51.9557 116.963 44.6584 120 35.919 120C26.1308 120 17.6973 116.052 10.6184 108.156C3.53942 100.26 0 90.6725 0 79.3926C0 45.553 18.9643 19.089 56.8935 0L67.1186 18.7419Z" fill="#2EC5CE"/>
<path d="M141.689 18.5205C120.625 28.9071 109.887 41.1932 109.887 55.4447V55.8907L110.33 55.9414C119.308 56.97 126.712 60.6068 132.57 66.8497C138.43 73.0955 141.349 80.3065 141.349 88.5033C141.349 97.2335 138.508 104.57 132.834 110.545C127.165 116.515 120.044 119.5 111.435 119.5C101.802 119.5 93.455 115.622 86.374 107.82C79.2962 100.022 75.7542 90.5561 75.7542 79.3926C75.7542 45.9233 94.5022 19.6794 132.198 0.666232L141.689 18.5205ZM66.4289 18.5215C45.1969 28.9068 34.3702 41.1919 34.3702 55.4447V55.8916L34.8144 55.9416C43.9695 56.9706 51.4601 60.6089 57.3154 66.8497C63.1754 73.0955 66.0943 80.3065 66.0943 88.5033C66.0943 97.2312 63.212 104.567 57.4512 110.542C51.6938 116.515 44.5281 119.5 35.919 119.5C26.2856 119.5 17.9837 115.622 10.9907 107.822C3.99949 100.024 0.5 90.5579 0.5 79.3926C0.5 45.9213 19.1634 19.6774 56.6866 0.664646L66.4289 18.5215Z" stroke="black"/>
</g>
<defs>
<filter id="filter0_d_1_1939" x="-4" y="0" width="150.373" height="128" filterUnits="userSpaceOnUse" color-interpolation-filters="sRGB">
<feFlood flood-opacity="0" result="BackgroundImageFix"/>
<feColorMatrix in="SourceAlpha" type="matrix" values="0 0 0 0 0 0 0 0 0 0 0 0 0 0 0 0 0 0 127 0" result="hardAlpha"/>
<feOffset dy="4"/>
<feGaussianBlur stdDeviation="2"/>
<feComposite in2="hardAlpha" operator="out"/>
<feColorMatrix type="matrix" values="0 0 0 0 0 0 0 0 0 0 0 0 0 0 0 0 0 0 0.25 0"/>
<feBlend mode="normal" in2="BackgroundImageFix" result="effect1_dropShadow_1_1939"/>
<feBlend mode="normal" in="SourceGraphic" in2="effect1_dropShadow_1_1939" result="shape"/>
</filter>
</defs>
</svg>
